<svg width="211" height="69" viewBox="0 0 211 69" fill="none" xmlns="http://www.w3.org/2000/svg">
<g filter="url(#filter0_d_139_74)">
<g filter="url(#filter1_d_139_74)">
<path fill-rule="evenodd" clip-rule="evenodd" d="M31.1516 7.73953C33.4661 4.83508 33.8259 3.63154 35.4001 2.52592C39.593 -0.41951 42.863 1.99336 41.5745 5.12091C40.9834 6.55571 40.9784 6.2478 38.688 9.17102C24.4459 27.3494 32.187 24.1233 46.4281 21.7599C48.1869 21.468 51.9387 21.3963 53.6625 19.8241C59.2853 14.6964 62.2547 3.17422 65.18 3.56351C67.5675 3.88146 67.3215 3.59635 68.7484 4.723C70.2136 5.87953 68.0845 7.90606 66.6965 10.5774C66.018 11.8835 64.225 16.0202 63.6615 17.5041C63.3202 18.4036 64.4126 16.6616 63.6615 17.5041C62.1246 19.229 64.497 18.6091 67.235 18.4454C70.0561 18.2766 73.2684 18.5484 73.204 19.4319C73.1612 20.0145 71.2555 20.835 66.2545 22.4698C64.4002 23.076 63.7604 23.0024 63.0473 23.3859C62.0064 23.9459 60.5693 23.9097 55.3906 33.2807C53.6756 36.3845 49.465 42.4266 46.8679 44.3594C44.5327 46.0977 42.9086 44.1861 49.3619 34.4719C59.3397 19.4519 35.9087 28.0867 26.2345 29.6697C18.2111 30.9824 8.26348 57.9223 5.23766 57.8647C0.103685 57.767 1.79011 54.9485 3.93381 51.0725C7.1369 45.282 14.2968 35.6318 16.143 30.7873C17.5047 27.2133 1.97608 36.2475 13.5006 25.8258C15.0743 24.4028 17.9412 25.4884 20.2409 24.5355C22.0445 23.7884 22.7957 21.508 24.5584 19.1608C26.37 16.7492 27.9104 11.8068 31.1516 7.73953V7.73953Z" fill="#FF8A00" fill-opacity="0.97" shape-rendering="crispEdges"/>
</g>
<g filter="url(#filter2_d_139_74)">
<path fill-rule="evenodd" clip-rule="evenodd" d="M87.3232 21.3162C83.114 18.3693 75.6328 19.6238 70.614 24.1176C65.5951 28.6112 64.9383 34.6429 69.1475 37.5898C73.3565 40.5367 80.8378 39.2822 85.8566 34.7883C90.8754 30.2948 91.5322 24.2629 87.3232 21.3162V21.3162ZM81.4092 27.1108C79.5281 25.7937 76.184 26.3541 73.9406 28.363C71.6976 30.3716 71.4044 33.0674 73.2852 34.3844C75.1664 35.7016 78.5106 35.1413 80.7537 33.1323C82.9969 31.1237 83.2904 28.4282 81.4092 27.1108V27.1108Z" fill="#FF8A00" fill-opacity="0.97" shape-rendering="crispEdges"/>
</g>
<g filter="url(#filter3_d_139_74)">
<path fill-rule="evenodd" clip-rule="evenodd" d="M105.736 26.7253C105.572 26.6902 105.986 26.7077 105.805 26.7258C104.239 26.8827 101.695 28.6308 103.699 25.0885C104.157 24.0277 113.352 15.3032 104.507 17.2706C101.48 17.944 86.0198 39.2343 96.3908 37.3091C104.6 35.7856 114.1 21.9842 118.914 27.489C120.217 28.9783 119.904 31.0324 120.472 32.9446C123.33 42.578 136.26 34.7788 137.245 31.6353C132.798 29.0321 126.763 37.746 127.408 27.5446C127.59 24.663 126.408 23.0985 125.384 21.9242C120.501 16.3244 106.709 26.9353 105.736 26.7253V26.7253Z" fill="#FF8A00" fill-opacity="0.97" shape-rendering="crispEdges"/>
</g>
<g filter="url(#filter4_d_139_74)">
<path fill-rule="evenodd" clip-rule="evenodd" d="M148.322 26.5069C149.911 27.5132 159.029 24.731 161.712 23.2663C178.543 14.0781 143.524 10.225 139.857 29.3079C138.429 36.7452 154.52 39.0285 163.744 32.572C165.26 31.5105 175.168 26.9074 168.96 26.6845C168.606 26.6719 163.418 31.19 154.911 31.417C151.609 31.5051 146.813 32.3714 148.109 26.5708C148.138 26.4412 148.247 26.4595 148.322 26.5069V26.5069ZM150.958 22.4699C156.66 17.511 163.543 22.5484 151.32 22.2654C151.171 22.2621 151.033 22.4041 150.958 22.4699Z" fill="#FF8A00" fill-opacity="0.97" shape-rendering="crispEdges"/>
</g>
<g filter="url(#filter5_d_139_74)">
<path fill-rule="evenodd" clip-rule="evenodd" d="M183.425 18.3235C189.444 21.1363 177.099 26.8775 184.028 27.6279C190.367 28.3142 207.963 5.16428 206.428 27.489C204.634 53.5641 153.945 67.4146 157.547 53.676C157.56 53.626 159.502 51.1467 161.38 51.7761C162.278 52.0772 164.051 51.9069 164.249 53.9427C164.729 58.8761 201.211 44.9871 199.479 28.362C198.931 23.1035 192.211 33.2019 181.501 33.2019C163.217 33.2019 176.975 15.3096 183.425 18.3235V18.3235Z" fill="#FF8A00" fill-opacity="0.97" shape-rendering="crispEdges"/>
</g>
</g>
<defs>
<filter id="filter0_d_139_74" x="1.85474" y="1.1922" width="220.667" height="66.8808" filterUnits="userSpaceOnUse" color-interpolation-filters="sRGB">
<feFlood flood-opacity="0" result="BackgroundImageFix"/>
<feColorMatrix in="SourceAlpha" type="matrix" values="0 0 0 0 0 0 0 0 0 0 0 0 0 0 0 0 0 0 127 0" result="hardAlpha"/>
<feOffset dx="12" dy="5"/>
<feGaussianBlur stdDeviation="2"/>
<feComposite in2="hardAlpha" operator="out"/>
<feColorMatrix type="matrix" values="0 0 0 0 0.0901961 0 0 0 0 0.0901961 0 0 0 0 0.0901961 0 0 0 0.25 0"/>
<feBlend mode="normal" in2="BackgroundImageFix" result="effect1_dropShadow_139_74"/>
<feBlend mode="normal" in="SourceGraphic" in2="effect1_dropShadow_139_74" result="shape"/>
</filter>
<filter id="filter1_d_139_74" x="0.854736" y="0.1922" width="73.3502" height="58.6726" filterUnits="userSpaceOnUse" color-interpolation-filters="sRGB">
<feFlood flood-opacity="0" result="BackgroundImageFix"/>
<feColorMatrix in="SourceAlpha" type="matrix" values="0 0 0 0 0 0 0 0 0 0 0 0 0 0 0 0 0 0 127 0" result="hardAlpha"/>
<feOffset/>
<feGaussianBlur stdDeviation="0.5"/>
<feComposite in2="hardAlpha" operator="out"/>
<feColorMatrix type="matrix" values="0 0 0 0 1 0 0 0 0 1 0 0 0 0 1 0 0 0 1 0"/>
<feBlend mode="normal" in2="BackgroundImageFix" result="effect1_dropShadow_139_74"/>
<feBlend mode="normal" in="SourceGraphic" in2="effect1_dropShadow_139_74" result="shape"/>
</filter>
<filter id="filter2_d_139_74" x="65.3745" y="18.7217" width="25.7214" height="21.4625" filterUnits="userSpaceOnUse" color-interpolation-filters="sRGB">
<feFlood flood-opacity="0" result="BackgroundImageFix"/>
<feColorMatrix in="SourceAlpha" type="matrix" values="0 0 0 0 0 0 0 0 0 0 0 0 0 0 0 0 0 0 127 0" result="hardAlpha"/>
<feOffset/>
<feGaussianBlur stdDeviation="0.5"/>
<feComposite in2="hardAlpha" operator="out"/>
<feColorMatrix type="matrix" values="0 0 0 0 1 0 0 0 0 1 0 0 0 0 1 0 0 0 1 0"/>
<feBlend mode="normal" in2="BackgroundImageFix" result="effect1_dropShadow_139_74"/>
<feBlend mode="normal" in="SourceGraphic" in2="effect1_dropShadow_139_74" result="shape"/>
</filter>
<filter id="filter3_d_139_74" x="91.8569" y="15.9827" width="46.3877" height="22.619" filterUnits="userSpaceOnUse" color-interpolation-filters="sRGB">
<feFlood flood-opacity="0" result="BackgroundImageFix"/>
<feColorMatrix in="SourceAlpha" type="matrix" values="0 0 0 0 0 0 0 0 0 0 0 0 0 0 0 0 0 0 127 0" result="hardAlpha"/>
<feOffset/>
<feGaussianBlur stdDeviation="0.5"/>
<feComposite in2="hardAlpha" operator="out"/>
<feColorMatrix type="matrix" values="0 0 0 0 1 0 0 0 0 1 0 0 0 0 1 0 0 0 1 0"/>
<feBlend mode="normal" in2="BackgroundImageFix" result="effect1_dropShadow_139_74"/>
<feBlend mode="normal" in="SourceGraphic" in2="effect1_dropShadow_139_74" result="shape"/>
</filter>
<filter id="filter4_d_139_74" x="138.768" y="14.6694" width="33.2163" height="22.6849" filterUnits="userSpaceOnUse" color-interpolation-filters="sRGB">
<feFlood flood-opacity="0" result="BackgroundImageFix"/>
<feColorMatrix in="SourceAlpha" type="matrix" values="0 0 0 0 0 0 0 0 0 0 0 0 0 0 0 0 0 0 127 0" result="hardAlpha"/>
<feOffset/>
<feGaussianBlur stdDeviation="0.5"/>
<feComposite in2="hardAlpha" operator="out"/>
<feColorMatrix type="matrix" values="0 0 0 0 1 0 0 0 0 1 0 0 0 0 1 0 0 0 1 0"/>
<feBlend mode="normal" in2="BackgroundImageFix" result="effect1_dropShadow_139_74"/>
<feBlend mode="normal" in="SourceGraphic" in2="effect1_dropShadow_139_74" result="shape"/>
</filter>
<filter id="filter5_d_139_74" x="156.364" y="16.7526" width="51.1582" height="43.3204" filterUnits="userSpaceOnUse" color-interpolation-filters="sRGB">
<feFlood flood-opacity="0" result="BackgroundImageFix"/>
<feColorMatrix in="SourceAlpha" type="matrix" values="0 0 0 0 0 0 0 0 0 0 0 0 0 0 0 0 0 0 127 0" result="hardAlpha"/>
<feOffset/>
<feGaussianBlur stdDeviation="0.5"/>
<feComposite in2="hardAlpha" operator="out"/>
<feColorMatrix type="matrix" values="0 0 0 0 1 0 0 0 0 1 0 0 0 0 1 0 0 0 1 0"/>
<feBlend mode="normal" in2="BackgroundImageFix" result="effect1_dropShadow_139_74"/>
<feBlend mode="normal" in="SourceGraphic" in2="effect1_dropShadow_139_74" result="shape"/>
</filter>
</defs>
</svg>
