<svg width="117" height="61" viewBox="0 0 117 61" fill="none" xmlns="http://www.w3.org/2000/svg">
<g clip-path="url(#clip0_231_54)">
<g filter="url(#filter0_d_231_54)">
<g filter="url(#filter1_d_231_54)">
<path fill-rule="evenodd" clip-rule="evenodd" d="M17.3409 11.9759C18.6198 10.2138 18.8186 9.48361 19.6884 8.81283C22.0052 7.02584 23.812 8.48973 23.1001 10.3872C22.7735 11.2577 22.7707 11.0709 21.5052 12.8444C13.6356 23.8733 17.913 21.9159 25.782 20.4821C26.7538 20.305 28.8269 20.2615 29.7793 19.3076C32.8862 16.1967 34.527 9.20616 36.1433 9.44234C37.4626 9.63524 37.3266 9.46226 38.1151 10.1458C38.9247 10.8475 37.7483 12.077 36.9813 13.6976C36.6064 14.4901 35.6157 16.9998 35.3043 17.9001C35.1157 18.4458 35.7193 17.3889 35.3043 17.9001C34.4551 18.9466 35.766 18.5705 37.2788 18.4712C38.8377 18.3688 40.6127 18.5336 40.577 19.0697C40.5534 19.4231 39.5004 19.9209 36.7371 20.9128C35.7125 21.2806 35.359 21.2359 34.9649 21.4686C34.3898 21.8083 33.5957 21.7864 30.7342 27.4718C29.7866 29.3548 27.46 33.0206 26.025 34.1932C24.7346 35.2479 23.8373 34.0881 27.403 28.1945C32.9163 19.0818 19.9695 24.3206 14.6239 25.281C10.1906 26.0774 4.694 42.4218 3.02208 42.3869C0.185284 42.3276 1.11712 40.6177 2.30163 38.2661C4.07151 34.7529 8.02774 28.8982 9.04786 25.959C9.80027 23.7906 1.21988 29.2717 7.58776 22.9489C8.45733 22.0856 10.0415 22.7442 11.3122 22.166C12.3087 21.7128 12.7238 20.3292 13.6978 18.9052C14.6988 17.4421 15.55 14.4435 17.3409 11.9759Z" fill="white" fill-opacity="0.97" shape-rendering="crispEdges"/>
<path fill-rule="evenodd" clip-rule="evenodd" d="M17.3409 11.9759C18.6198 10.2138 18.8186 9.48361 19.6884 8.81283C22.0052 7.02584 23.812 8.48973 23.1001 10.3872C22.7735 11.2577 22.7707 11.0709 21.5052 12.8444C13.6356 23.8733 17.913 21.9159 25.782 20.4821C26.7538 20.305 28.8269 20.2615 29.7793 19.3076C32.8862 16.1967 34.527 9.20616 36.1433 9.44234C37.4626 9.63524 37.3266 9.46226 38.1151 10.1458C38.9247 10.8475 37.7483 12.077 36.9813 13.6976C36.6064 14.4901 35.6157 16.9998 35.3043 17.9001C35.1157 18.4458 35.7193 17.3889 35.3043 17.9001C34.4551 18.9466 35.766 18.5705 37.2788 18.4712C38.8377 18.3688 40.6127 18.5336 40.577 19.0697C40.5534 19.4231 39.5004 19.9209 36.7371 20.9128C35.7125 21.2806 35.359 21.2359 34.9649 21.4686C34.3898 21.8083 33.5957 21.7864 30.7342 27.4718C29.7866 29.3548 27.46 33.0206 26.025 34.1932C24.7346 35.2479 23.8373 34.0881 27.403 28.1945C32.9163 19.0818 19.9695 24.3206 14.6239 25.281C10.1906 26.0774 4.694 42.4218 3.02208 42.3869C0.185284 42.3276 1.11712 40.6177 2.30163 38.2661C4.07151 34.7529 8.02774 28.8982 9.04786 25.959C9.80027 23.7906 1.21988 29.2717 7.58776 22.9489C8.45733 22.0856 10.0415 22.7442 11.3122 22.166C12.3087 21.7128 12.7238 20.3292 13.6978 18.9052C14.6988 17.4421 15.55 14.4435 17.3409 11.9759Z" stroke="white" stroke-opacity="0.97" stroke-width="0.755906" stroke-miterlimit="22.9256" shape-rendering="crispEdges"/>
</g>
<g filter="url(#filter2_d_231_54)">
<path fill-rule="evenodd" clip-rule="evenodd" d="M48.3787 20.213C46.0529 18.4251 41.9191 19.1862 39.146 21.9126C36.3728 24.6388 36.0099 28.2983 38.3357 30.0862C40.6614 31.874 44.7952 31.1129 47.5683 28.3865C50.3415 25.6603 50.7044 22.0007 48.3787 20.213ZM45.1109 23.7285C44.0715 22.9295 42.2238 23.2694 40.9841 24.4883C39.7448 25.7069 39.5827 27.3424 40.622 28.1414C41.6615 28.9406 43.5093 28.6006 44.7488 27.3818C45.9882 26.1632 46.1504 24.5278 45.1109 23.7285Z" fill="white" fill-opacity="0.97" shape-rendering="crispEdges"/>
<path fill-rule="evenodd" clip-rule="evenodd" d="M48.3787 20.213C46.0529 18.4251 41.9191 19.1862 39.146 21.9126C36.3728 24.6388 36.0099 28.2983 38.3357 30.0862C40.6614 31.874 44.7952 31.1129 47.5683 28.3865C50.3415 25.6603 50.7044 22.0007 48.3787 20.213ZM45.1109 23.7285C44.0715 22.9295 42.2238 23.2694 40.9841 24.4883C39.7448 25.7069 39.5827 27.3424 40.622 28.1414C41.6615 28.9406 43.5093 28.6006 44.7488 27.3818C45.9882 26.1632 46.1504 24.5278 45.1109 23.7285Z" stroke="white" stroke-opacity="0.97" stroke-width="0.755906" stroke-miterlimit="22.9256" shape-rendering="crispEdges"/>
</g>
<g filter="url(#filter3_d_231_54)">
<path fill-rule="evenodd" clip-rule="evenodd" d="M58.5525 23.4946C58.4622 23.4733 58.6905 23.4839 58.5909 23.4948C57.7257 23.5901 56.3197 24.6506 57.4271 22.5015C57.6802 21.8579 62.7609 16.5648 57.8736 17.7584C56.2009 18.167 47.6584 31.0837 53.3889 29.9157C57.9248 28.9914 63.1745 20.6181 65.8344 23.9579C66.5542 24.8614 66.3814 26.1077 66.6949 27.2678C68.2743 33.1124 75.419 28.3806 75.9629 26.4734C73.5057 24.8941 70.1713 30.1808 70.5274 23.9916C70.6279 22.2433 69.9749 21.2942 69.4092 20.5817C66.7109 17.1843 59.0901 23.622 58.5525 23.4946Z" fill="white" fill-opacity="0.97" shape-rendering="crispEdges"/>
<path fill-rule="evenodd" clip-rule="evenodd" d="M58.5525 23.4946C58.4622 23.4733 58.6905 23.4839 58.5909 23.4948C57.7257 23.5901 56.3197 24.6506 57.4271 22.5015C57.6802 21.8579 62.7609 16.5648 57.8736 17.7584C56.2009 18.167 47.6584 31.0837 53.3889 29.9157C57.9248 28.9914 63.1745 20.6181 65.8344 23.9579C66.5542 24.8614 66.3814 26.1077 66.6949 27.2678C68.2743 33.1124 75.419 28.3806 75.9629 26.4734C73.5057 24.8941 70.1713 30.1808 70.5274 23.9916C70.6279 22.2433 69.9749 21.2942 69.4092 20.5817C66.7109 17.1843 59.0901 23.622 58.5525 23.4946Z" stroke="white" stroke-opacity="0.97" stroke-width="0.755906" stroke-miterlimit="22.9256" shape-rendering="crispEdges"/>
</g>
<g filter="url(#filter4_d_231_54)">
<path fill-rule="evenodd" clip-rule="evenodd" d="M82.0837 23.3622C82.9617 23.9727 87.9996 22.2848 89.4824 21.3961C98.7822 15.8217 79.4327 13.484 77.4065 25.0616C76.617 29.5738 85.5086 30.9591 90.6049 27.0419C91.4427 26.3979 96.9173 23.6052 93.4873 23.47C93.2916 23.4623 90.4247 26.2034 85.7247 26.3412C83.9 26.3946 81.2498 26.9202 81.9659 23.401C81.9818 23.3224 82.0423 23.3335 82.0837 23.3622ZM83.5401 20.9129C86.6906 17.9044 90.4943 20.9606 83.7401 20.7889C83.6579 20.7869 83.5818 20.873 83.5401 20.9129Z" fill="white" fill-opacity="0.97" shape-rendering="crispEdges"/>
<path fill-rule="evenodd" clip-rule="evenodd" d="M82.0837 23.3622C82.9617 23.9727 87.9996 22.2848 89.4824 21.3961C98.7822 15.8217 79.4327 13.484 77.4065 25.0616C76.617 29.5738 85.5086 30.9591 90.6049 27.0419C91.4427 26.3979 96.9173 23.6052 93.4873 23.47C93.2916 23.4623 90.4247 26.2034 85.7247 26.3412C83.9 26.3946 81.2498 26.9202 81.9659 23.401C81.9818 23.3224 82.0423 23.3335 82.0837 23.3622ZM83.5401 20.9129C86.6906 17.9044 90.4943 20.9606 83.7401 20.7889C83.6579 20.7869 83.5818 20.873 83.5401 20.9129Z" stroke="white" stroke-opacity="0.97" stroke-width="0.755906" stroke-miterlimit="22.9256" shape-rendering="crispEdges"/>
</g>
<g filter="url(#filter5_d_231_54)">
<path fill-rule="evenodd" clip-rule="evenodd" d="M101.48 18.3972C104.806 20.1037 97.9847 23.5869 101.813 24.0421C105.316 24.4585 115.039 10.4134 114.19 23.9578C113.199 39.7776 85.191 48.1807 87.181 39.8455C87.1883 39.8151 88.2614 38.311 89.299 38.6928C89.7955 38.8755 90.775 38.7722 90.8845 40.0073C91.1495 43.0004 111.308 34.574 110.351 24.4875C110.048 21.2971 106.334 27.4238 100.417 27.4238C90.3142 27.4238 97.9162 16.5686 101.48 18.3972Z" fill="white" fill-opacity="0.97" shape-rendering="crispEdges"/>
<path fill-rule="evenodd" clip-rule="evenodd" d="M101.48 18.3972C104.806 20.1037 97.9847 23.5869 101.813 24.0421C105.316 24.4585 115.039 10.4134 114.19 23.9578C113.199 39.7776 85.191 48.1807 87.181 39.8455C87.1883 39.8151 88.2614 38.311 89.299 38.6928C89.7955 38.8755 90.775 38.7722 90.8845 40.0073C91.1495 43.0004 111.308 34.574 110.351 24.4875C110.048 21.2971 106.334 27.4238 100.417 27.4238C90.3142 27.4238 97.9162 16.5686 101.48 18.3972Z" stroke="white" stroke-opacity="0.97" stroke-width="0.755906" stroke-miterlimit="22.9256" shape-rendering="crispEdges"/>
</g>
</g>
</g>
<defs>
<filter id="filter0_d_231_54" x="0.774902" y="7.625" width="129.845" height="44.8728" filterUnits="userSpaceOnUse" color-interpolation-filters="sRGB">
<feFlood flood-opacity="0" result="BackgroundImageFix"/>
<feColorMatrix in="SourceAlpha" type="matrix" values="0 0 0 0 0 0 0 0 0 0 0 0 0 0 0 0 0 0 127 0" result="hardAlpha"/>
<feOffset dx="12" dy="5"/>
<feGaussianBlur stdDeviation="2"/>
<feComposite in2="hardAlpha" operator="out"/>
<feColorMatrix type="matrix" values="0 0 0 0 0.0901961 0 0 0 0 0.0901961 0 0 0 0 0.0901961 0 0 0 0.25 0"/>
<feBlend mode="normal" in2="BackgroundImageFix" result="effect1_dropShadow_231_54"/>
<feBlend mode="normal" in="SourceGraphic" in2="effect1_dropShadow_231_54" result="shape"/>
</filter>
<filter id="filter1_d_231_54" x="-0.225098" y="6.625" width="42.1808" height="37.1399" filterUnits="userSpaceOnUse" color-interpolation-filters="sRGB">
<feFlood flood-opacity="0" result="BackgroundImageFix"/>
<feColorMatrix in="SourceAlpha" type="matrix" values="0 0 0 0 0 0 0 0 0 0 0 0 0 0 0 0 0 0 127 0" result="hardAlpha"/>
<feOffset/>
<feGaussianBlur stdDeviation="0.5"/>
<feComposite in2="hardAlpha" operator="out"/>
<feColorMatrix type="matrix" values="0 0 0 0 1 0 0 0 0 1 0 0 0 0 1 0 0 0 1 0"/>
<feBlend mode="normal" in2="BackgroundImageFix" result="effect1_dropShadow_231_54"/>
<feBlend mode="normal" in="SourceGraphic" in2="effect1_dropShadow_231_54" result="shape"/>
</filter>
<filter id="filter2_d_231_54" x="35.4255" y="17.8677" width="15.8632" height="14.5637" filterUnits="userSpaceOnUse" color-interpolation-filters="sRGB">
<feFlood flood-opacity="0" result="BackgroundImageFix"/>
<feColorMatrix in="SourceAlpha" type="matrix" values="0 0 0 0 0 0 0 0 0 0 0 0 0 0 0 0 0 0 127 0" result="hardAlpha"/>
<feOffset/>
<feGaussianBlur stdDeviation="0.5"/>
<feComposite in2="hardAlpha" operator="out"/>
<feColorMatrix type="matrix" values="0 0 0 0 1 0 0 0 0 1 0 0 0 0 1 0 0 0 1 0"/>
<feBlend mode="normal" in2="BackgroundImageFix" result="effect1_dropShadow_231_54"/>
<feBlend mode="normal" in="SourceGraphic" in2="effect1_dropShadow_231_54" result="shape"/>
</filter>
<filter id="filter3_d_231_54" x="50.0583" y="16.2058" width="27.345" height="15.2654" filterUnits="userSpaceOnUse" color-interpolation-filters="sRGB">
<feFlood flood-opacity="0" result="BackgroundImageFix"/>
<feColorMatrix in="SourceAlpha" type="matrix" values="0 0 0 0 0 0 0 0 0 0 0 0 0 0 0 0 0 0 127 0" result="hardAlpha"/>
<feOffset/>
<feGaussianBlur stdDeviation="0.5"/>
<feComposite in2="hardAlpha" operator="out"/>
<feColorMatrix type="matrix" values="0 0 0 0 1 0 0 0 0 1 0 0 0 0 1 0 0 0 1 0"/>
<feBlend mode="normal" in2="BackgroundImageFix" result="effect1_dropShadow_231_54"/>
<feBlend mode="normal" in="SourceGraphic" in2="effect1_dropShadow_231_54" result="shape"/>
</filter>
<filter id="filter4_d_231_54" x="75.9792" y="15.4092" width="20.0046" height="15.3054" filterUnits="userSpaceOnUse" color-interpolation-filters="sRGB">
<feFlood flood-opacity="0" result="BackgroundImageFix"/>
<feColorMatrix in="SourceAlpha" type="matrix" values="0 0 0 0 0 0 0 0 0 0 0 0 0 0 0 0 0 0 127 0" result="hardAlpha"/>
<feOffset/>
<feGaussianBlur stdDeviation="0.5"/>
<feComposite in2="hardAlpha" operator="out"/>
<feColorMatrix type="matrix" values="0 0 0 0 1 0 0 0 0 1 0 0 0 0 1 0 0 0 1 0"/>
<feBlend mode="normal" in2="BackgroundImageFix" result="effect1_dropShadow_231_54"/>
<feBlend mode="normal" in="SourceGraphic" in2="effect1_dropShadow_231_54" result="shape"/>
</filter>
<filter id="filter5_d_231_54" x="85.7021" y="16.6729" width="29.9182" height="27.825" filterUnits="userSpaceOnUse" color-interpolation-filters="sRGB">
<feFlood flood-opacity="0" result="BackgroundImageFix"/>
<feColorMatrix in="SourceAlpha" type="matrix" values="0 0 0 0 0 0 0 0 0 0 0 0 0 0 0 0 0 0 127 0" result="hardAlpha"/>
<feOffset/>
<feGaussianBlur stdDeviation="0.5"/>
<feComposite in2="hardAlpha" operator="out"/>
<feColorMatrix type="matrix" values="0 0 0 0 1 0 0 0 0 1 0 0 0 0 1 0 0 0 1 0"/>
<feBlend mode="normal" in2="BackgroundImageFix" result="effect1_dropShadow_231_54"/>
<feBlend mode="normal" in="SourceGraphic" in2="effect1_dropShadow_231_54" result="shape"/>
</filter>
<clipPath id="clip0_231_54">
<rect width="116.487" height="60.67" fill="white"/>
</clipPath>
</defs>
</svg>
